<svg width="28" height="30" viewBox="0 0 28 30" fill="none" xmlns="http://www.w3.org/2000/svg">
<path d="M25.9296 0.000206633H2.07042C1.80222 -0.00370141 1.53592 0.0478598 1.28671 0.151946C1.03751 0.256032 0.810286 0.410604 0.618025 0.606834C0.425763 0.803064 0.272227 1.03711 0.166186 1.2956C0.0601442 1.55409 0.00367379 1.83197 0 2.11336V27.4417C0.00367379 27.7231 0.0601442 28.001 0.166186 28.2595C0.272227 28.518 0.425763 28.752 0.618025 28.9482C0.810286 29.1445 1.03751 29.299 1.28671 29.4031C1.53592 29.5072 1.80222 29.5588 2.07042 29.5549H25.9296C26.1978 29.5588 26.4641 29.5072 26.7133 29.4031C26.9625 29.299 27.1897 29.1445 27.382 28.9482C27.5742 28.752 27.7278 28.518 27.8338 28.2595C27.9399 28.001 27.9963 27.7231 28 27.4417V2.11336C27.9963 1.83197 27.9399 1.55409 27.8338 1.2956C27.7278 1.03711 27.5742 0.803064 27.382 0.606834C27.1897 0.410604 26.9625 0.256032 26.7133 0.151946C26.4641 0.0478598 26.1978 -0.00370141 25.9296 0.000206633ZM8.49296 24.7375H4.26761V11.4379H8.49296V24.7375ZM6.38028 9.57591C5.79755 9.57591 5.23869 9.33304 4.82664 8.90072C4.41459 8.4684 4.1831 7.88205 4.1831 7.27065C4.1831 6.65926 4.41459 6.07291 4.82664 5.64058C5.23869 5.20826 5.79755 4.96539 6.38028 4.96539C6.68971 4.92857 7.00307 4.96074 7.29982 5.05979C7.59658 5.15884 7.87005 5.32254 8.10233 5.54017C8.33461 5.7578 8.52046 6.02445 8.64771 6.32266C8.77495 6.62087 8.84073 6.94392 8.84073 7.27065C8.84073 7.59738 8.77495 7.92043 8.64771 8.21864C8.52046 8.51685 8.33461 8.78351 8.10233 9.00113C7.87005 9.21876 7.59658 9.38246 7.29982 9.48151C7.00307 9.58056 6.68971 9.61273 6.38028 9.57591ZM23.7324 24.7375H19.507V17.6C19.507 15.8119 18.9014 14.6445 17.3662 14.6445C16.8911 14.6482 16.4284 14.8045 16.0406 15.0925C15.6528 15.3805 15.3584 15.7863 15.1972 16.2553C15.087 16.6026 15.0392 16.9684 15.0563 17.334V24.7227H10.831C10.831 24.7227 10.831 12.6348 10.831 11.4231H15.0563V13.2998C15.4402 12.601 15.9985 12.0253 16.671 11.6347C17.3436 11.2441 18.105 11.0534 18.8732 11.0832C21.6901 11.0832 23.7324 12.9895 23.7324 17.0828V24.7375Z" fill="#3564DC"/>
</svg>
